<?xml version="1.0" encoding="utf-8"?>
<!-- Generator: Adobe Illustrator 24.0.1, SVG Export Plug-In . SVG Version: 6.00 Build 0)  -->
<svg version="1.1" id="Layer_1" xmlns="http://www.w3.org/2000/svg" xmlns:xlink="http://www.w3.org/1999/xlink" x="0px" y="0px"
	 viewBox="0 0 256 256" style="enable-background:new 0 0 256 256;" xml:space="preserve">
<style type="text/css">
	.st0{fill:#C1272D;}
</style>
<g>
	<path d="M127.98,13.78c28.33,0,56.65-0.02,84.98,0.01c14.74,0.02,26.1,9.12,28.76,23.06c0.42,2.19,0.51,4.47,0.51,6.71
		c0.03,56.32,0.03,112.64,0.01,168.96c0,15.1-9.11,26.6-23.16,29.21c-2.36,0.44-4.81,0.53-7.21,0.53
		c-55.9,0.03-111.81-0.09-167.71,0.09c-17.45,0.06-27-11.11-29.4-21.14c-0.69-2.88-0.97-5.93-0.97-8.9
		c-0.06-56.24-0.05-112.47-0.03-168.71c0.01-15.21,8.93-26.56,23.03-29.31c2.27-0.44,4.64-0.49,6.96-0.49
		C71.83,13.77,99.91,13.78,127.98,13.78z M128.01,232.28c27.75,0,55.49,0,83.24-0.01c1.5,0,3-0.05,4.49-0.17
		c8.73-0.76,15.63-7.69,16.37-16.44c0.09-1.08,0.13-2.16,0.13-3.24c0.01-56.24,0.01-112.49,0-168.73c0-12.17-7.4-19.89-19.14-19.9
		c-56.74-0.02-113.49-0.02-170.23,0.03c-2.29,0-4.69,0.31-6.86,1.02c-7.92,2.61-12.26,9.41-12.26,18.86
		c-0.01,56.16,0,112.32,0,168.48c0,1.17,0,2.34,0.13,3.49c0.85,7.47,4.77,12.75,11.81,15.3c2.66,0.97,5.7,1.24,8.57,1.25
		C72.18,232.32,100.09,232.28,128.01,232.28z"/>
	<path class="st0" d="M104.05,127.81c-0.04-12.99,10.64-23.73,23.64-23.77c13-0.04,23.73,10.63,23.77,23.63
		c0.04,12.99-10.64,23.73-23.64,23.77C114.83,151.49,104.09,140.8,104.05,127.81z"/>
</g>
</svg>
