<?xml version="1.0" encoding="utf-8"?>
<!-- Generator: Adobe Illustrator 24.0.1, SVG Export Plug-In . SVG Version: 6.00 Build 0)  -->
<svg version="1.1" id="Layer_1" xmlns="http://www.w3.org/2000/svg" xmlns:xlink="http://www.w3.org/1999/xlink" x="0px" y="0px"
	 viewBox="0 0 256 256" style="enable-background:new 0 0 256 256;" xml:space="preserve">
<style type="text/css">
	.st0{fill:#C1272D;}
</style>
<g>
	<path d="M128.23,13.75c28.26,0,56.52-0.02,84.78,0.01c14.75,0.02,26.12,9.12,28.77,23.07c0.45,2.35,0.51,4.81,0.51,7.22
		c0,56.12-0.03,112.23-0.06,168.35c-0.01,18-11.87,29.95-29.91,29.97c-35.35,0.05-70.69,0.01-106.04,0.01
		c-20.84,0-41.68-0.04-62.52,0.02c-10.26,0.03-18.69-3.6-24.81-12.01c-3.71-5.1-5.23-10.9-5.23-17.15
		c0.01-56.78-0.04-113.57,0.03-170.35c0.02-14.72,9.12-25.9,22.97-28.62c2.27-0.45,4.64-0.5,6.96-0.5
		C71.88,13.73,100.06,13.75,128.23,13.75z M128.08,23.75c-28.17,0-56.34,0-84.52,0c-12.31,0-19.81,7.45-19.81,19.74
		c-0.01,56.36-0.01,112.71,0.01,169.07c0,1.9,0.09,3.86,0.52,5.7c2.08,8.78,9.18,14.08,19.02,14.09
		c56.51,0.03,113.02,0.02,169.53-0.01c1.82,0,3.69-0.15,5.45-0.58c8.88-2.15,14.02-9.25,14.01-19.31
		c-0.01-56.36-0.04-112.71-0.09-169.07c0-1.82-0.06-3.7-0.47-5.46c-2.01-8.77-9.13-14.16-18.66-14.17
		C184.76,23.74,156.42,23.75,128.08,23.75z"/>
	<path class="st0" d="M191.41,87.98c-13.01,0.07-23.77-10.58-23.83-23.58c-0.06-13.03,10.56-23.76,23.57-23.85
		c12.99-0.08,23.76,10.57,23.84,23.59C215.08,77.12,204.4,87.91,191.41,87.98z"/>
	<path class="st0" d="M191.27,167.59c13.01,0,23.72,10.7,23.72,23.7c0,13-10.72,23.72-23.72,23.72c-13,0-23.7-10.71-23.7-23.72
		C167.57,178.28,178.26,167.59,191.27,167.59z"/>
	<path class="st0" d="M64.36,87.98c-13,0.04-23.75-10.63-23.79-23.63c-0.05-12.99,10.64-23.75,23.63-23.8
		c13-0.04,23.74,10.63,23.78,23.64C88.03,77.2,77.37,87.94,64.36,87.98z"/>
	<path class="st0" d="M87.98,191.34c-0.03,13.01-10.75,23.7-23.75,23.67c-13-0.03-23.7-10.77-23.67-23.76
		c0.03-13.01,10.74-23.68,23.75-23.66C77.33,167.61,88.01,178.33,87.98,191.34z"/>
	<path class="st0" d="M127.83,104.06c13.01,0.03,23.69,10.76,23.66,23.76c-0.03,13-10.77,23.7-23.76,23.67
		c-12.99-0.03-23.69-10.78-23.66-23.77C104.1,114.73,114.84,104.03,127.83,104.06z"/>
</g>
</svg>
