<?xml version="1.0" encoding="utf-8"?>
<!-- Generator: Adobe Illustrator 24.0.1, SVG Export Plug-In . SVG Version: 6.00 Build 0)  -->
<svg version="1.1" id="Layer_1" xmlns="http://www.w3.org/2000/svg" xmlns:xlink="http://www.w3.org/1999/xlink" x="0px" y="0px"
	 viewBox="0 0 256 256" style="enable-background:new 0 0 256 256;" xml:space="preserve">
<style type="text/css">
	.st0{fill:#C1272D;}
</style>
<g>
	<path d="M128.28,13.73c28.26,0,56.52-0.02,84.79,0.01c14.73,0.02,26.1,9.17,28.75,23.11c0.37,1.95,0.49,3.98,0.49,5.97
		c0,56.84-0.01,113.69-0.07,170.53c-0.02,14.39-9.22,25.69-22.98,28.34c-2.35,0.45-4.81,0.56-7.21,0.56
		c-56.02,0.03-112.05-0.08-168.07,0.09c-17.85,0.05-27.81-12.03-29.68-23.03c-0.4-2.37-0.54-4.81-0.54-7.21
		c-0.03-56.09,0.1-112.19-0.1-168.28c-0.06-17.12,11.48-27.56,23.12-29.58c2.28-0.4,4.64-0.48,6.97-0.48
		C71.93,13.72,100.1,13.73,128.28,13.73z M232.32,127.91c-0.02,0-0.05,0-0.07,0c0-28,0.01-56-0.02-84c0-1.99-0.02-4.03-0.46-5.96
		c-2.01-8.93-9.19-14.21-19.13-14.21c-56.43-0.01-112.86-0.01-169.3,0c-12.08,0-19.6,7.53-19.6,19.69
		c-0.02,56.34-0.01,112.67,0.01,169.01c0,1.9,0.08,3.86,0.51,5.7c2.1,8.93,9.29,14.13,19.5,14.13
		c56.18,0.01,112.36,0.02,168.55-0.04c2.55,0,5.2-0.29,7.62-1.05c7.85-2.48,12.37-9.37,12.38-18.52
		C232.34,184.41,232.32,156.16,232.32,127.91z"/>
	<path class="st0" d="M191.3,87.94c-13.01,0.01-23.71-10.68-23.72-23.69c-0.01-13.01,10.68-23.71,23.69-23.73
		c12.99-0.02,23.73,10.7,23.74,23.69C215.01,77.2,204.29,87.93,191.3,87.94z"/>
	<path class="st0" d="M167.58,191.25c-0.02-13.02,10.65-23.71,23.67-23.73c13.01-0.02,23.73,10.65,23.76,23.66
		c0.03,12.98-10.69,23.73-23.68,23.75C178.32,214.94,167.6,204.25,167.58,191.25z"/>
	<path class="st0" d="M87.98,64.16c0.04,13.01-10.62,23.74-23.63,23.78c-13,0.04-23.75-10.63-23.79-23.63
		C40.51,51.32,51.2,40.56,64.2,40.52C77.2,40.48,87.94,51.15,87.98,64.16z"/>
	<path class="st0" d="M87.98,127.81c-0.05,13.01-10.8,23.67-23.8,23.62c-12.99-0.06-23.69-10.83-23.62-23.8
		c0.06-13,10.82-23.67,23.81-23.61C77.39,104.07,88.03,114.8,87.98,127.81z"/>
	<path class="st0" d="M167.58,127.74c-0.01-13.01,10.68-23.72,23.68-23.73c13.01-0.01,23.72,10.68,23.74,23.68
		c0.02,12.98-10.7,23.72-23.69,23.74C178.31,151.45,167.59,140.74,167.58,127.74z"/>
	<path class="st0" d="M64.4,167.52c13.01,0.06,23.65,10.81,23.58,23.82c-0.07,13.01-10.84,23.66-23.83,23.58
		c-13.01-0.08-23.67-10.86-23.59-23.83C40.64,178.08,51.38,167.46,64.4,167.52z"/>
</g>
</svg>
