<?xml version="1.0" encoding="utf-8"?>
<!-- Generator: Adobe Illustrator 24.0.1, SVG Export Plug-In . SVG Version: 6.00 Build 0)  -->
<svg version="1.1" id="Layer_1" xmlns="http://www.w3.org/2000/svg" xmlns:xlink="http://www.w3.org/1999/xlink" x="0px" y="0px"
	 viewBox="0 0 256 256" style="enable-background:new 0 0 256 256;" xml:space="preserve">
<style type="text/css">
	.st0{fill:#C1272D;}
</style>
<g>
	<path d="M127.89,242.29c-28.01,0-56.01-0.04-84.02,0.02c-9.15,0.02-17.01-2.78-23.16-9.74c-5.18-5.86-7.05-12.82-7.04-20.53
		c0.05-46.02,0.02-92.03,0.03-138.05c0-11.34-0.22-22.68,0.21-34.01C14.45,25.95,26,14.66,40.03,13.82c1.16-0.07,2.33-0.11,3.5-0.11
		c56.34-0.01,112.69-0.01,169.03,0c13.55,0,24.14,7.04,28.04,19.11c1.16,3.57,1.58,7.52,1.58,11.3
		c0.07,56.02-0.18,112.04,0.11,168.06c0.08,15.95-11.49,30.35-30.14,30.18C184.07,242.11,155.98,242.29,127.89,242.29z
		 M232.24,127.98c-0.02,0-0.05,0-0.07,0c0-28.01,0.01-56.01-0.02-84.02c0-1.99-0.01-4.04-0.44-5.96
		c-1.98-8.93-9.18-14.28-19.07-14.28c-56.42-0.01-112.84-0.01-169.26,0c-12.12,0-19.67,7.5-19.67,19.62
		c-0.02,56.43-0.01,112.86,0.01,169.29c0,1.9,0.11,3.86,0.56,5.7c2.18,8.91,9.32,13.97,19.62,13.97c56,0.01,112,0.01,168.01-0.02
		c2.07,0,4.2-0.08,6.2-0.55c8.81-2.05,14.11-9.18,14.12-18.97C232.26,184.49,232.24,156.23,232.24,127.98z"/>
	<path class="st0" d="M191.18,87.92c-13.01-0.02-23.68-10.73-23.67-23.74c0.02-13,10.73-23.7,23.73-23.68
		c12.99,0.02,23.71,10.76,23.68,23.74C214.9,77.25,204.17,87.95,191.18,87.92z"/>
	<path class="st0" d="M191.29,167.52c13.01,0.04,23.69,10.78,23.64,23.78c-0.05,13.01-10.8,23.69-23.79,23.64
		c-13.01-0.05-23.66-10.78-23.62-23.79C167.55,178.13,178.27,167.48,191.29,167.52z"/>
	<path class="st0" d="M87.93,64.5c-0.15,13.02-10.96,23.57-23.98,23.42C50.96,87.77,40.35,76.9,40.53,63.94
		c0.18-13.02,11.03-23.62,23.99-23.43C77.56,40.7,88.08,51.48,87.93,64.5z"/>
	<path class="st0" d="M64.29,167.52c13.01,0.03,23.68,10.75,23.64,23.76c-0.04,13.01-10.77,23.69-23.76,23.65
		c-13-0.04-23.69-10.79-23.65-23.77C40.56,178.15,51.28,167.49,64.29,167.52z"/>
</g>
</svg>
