<?xml version="1.0" encoding="utf-8"?>
<!-- Generator: Adobe Illustrator 24.0.1, SVG Export Plug-In . SVG Version: 6.00 Build 0)  -->
<svg version="1.1" id="Layer_1" xmlns="http://www.w3.org/2000/svg" xmlns:xlink="http://www.w3.org/1999/xlink" x="0px" y="0px"
	 viewBox="0 0 256 256" style="enable-background:new 0 0 256 256;" xml:space="preserve">
<style type="text/css">
	.st0{fill:#C1272D;}
	.st1{fill:#CC3333;}
</style>
<g>
	<path d="M242.27,128.23c0,28.09-0.01,56.18,0.01,84.26c0.01,12.54-5.34,21.92-16.82,27.12c-3.66,1.66-8.04,2.44-12.09,2.45
		c-56.85,0.15-113.71,0.13-170.56,0.09c-17.09-0.01-28.98-12.17-29-29.54c-0.04-33.59-0.01-67.18-0.01-100.77
		c0-22.92-0.03-45.84,0.01-68.76c0.03-13.26,7.04-23.61,18.97-27.65c3.17-1.07,6.68-1.57,10.04-1.58
		c56.77-0.09,113.54-0.09,170.31-0.05c17.14,0.01,29.09,12.09,29.12,29.42C242.31,71.55,242.27,99.89,242.27,128.23z M23.8,128.02
		c0,28.25-0.02,56.5,0.01,84.76c0.01,11.75,7.54,19.37,19.12,19.37c56.77,0.02,113.53,0.02,170.3,0c11.34,0,19-7.6,19.01-18.97
		c0.04-56.84,0.05-113.68,0-170.51c-0.01-11.36-7.71-18.86-19.11-18.87c-56.77-0.02-113.53-0.02-170.3,0.03
		c-2.21,0-4.53,0.27-6.63,0.94c-7.87,2.52-12.39,9.36-12.4,18.5C23.79,71.52,23.8,99.77,23.8,128.02z"/>
	<path class="st0" d="M64.54,167.83c13.15,0.02,23.63,10.52,23.62,23.65c-0.01,13.14-10.51,23.62-23.65,23.62
		c-13.13-0.01-23.63-10.52-23.62-23.64C40.91,178.31,51.42,167.81,64.54,167.83z"/>
	<path class="st1" d="M167.89,64.36c0.08-13.14,10.62-23.56,23.77-23.5c13.14,0.06,23.57,10.59,23.51,23.75
		c-0.06,13.12-10.64,23.59-23.76,23.51C178.28,88.04,167.81,77.46,167.89,64.36z"/>
</g>
</svg>
