<?xml version="1.0" encoding="utf-8"?>
<!-- Generator: Adobe Illustrator 24.0.1, SVG Export Plug-In . SVG Version: 6.00 Build 0)  -->
<svg version="1.1" id="Layer_1" xmlns="http://www.w3.org/2000/svg" xmlns:xlink="http://www.w3.org/1999/xlink" x="0px" y="0px"
	 viewBox="0 0 256 256" style="enable-background:new 0 0 256 256;" xml:space="preserve">
<style type="text/css">
	.st0{fill:#C1272D;}
</style>
<g>
	<path d="M13.74,127.99c0-28.16,0.03-56.33-0.02-84.49c-0.02-11.24,4.41-19.99,14.06-25.9c4.51-2.77,9.51-3.86,14.79-3.85
		c57.01,0.01,114.01-0.04,171.02,0.04c16.51,0.02,28.65,12.06,28.68,28.58c0.11,56.91,0.1,113.82,0.01,170.74
		c-0.03,17.46-12.18,29.15-29.92,29.18c-26.59,0.05-53.17,0.01-79.76,0.01c-29.5,0-59.01-0.05-88.51,0.03
		c-9.24,0.02-17.19-2.74-23.39-9.79c-5.1-5.8-7.01-12.66-7-20.28C13.78,184.15,13.74,156.07,13.74,127.99z M128.08,23.74
		c-28.17,0-56.35,0-84.52,0c-12.3,0-19.81,7.45-19.81,19.74c-0.01,56.34-0.01,112.67,0.02,169.01c0,1.9,0.09,3.86,0.53,5.7
		c2.12,8.93,9.3,14.08,19.53,14.08c56.1,0.01,112.19,0.01,168.29-0.02c2.07,0,4.2-0.11,6.19-0.59c8.88-2.13,13.99-9.24,13.99-19.31
		c0.01-56.25,0.01-112.51-0.02-168.76c0-1.91-0.07-3.86-0.5-5.71c-2.01-8.75-9.15-14.13-18.69-14.13
		C184.76,23.73,156.42,23.74,128.08,23.74z"/>
	<path class="st0" d="M191.2,87.94c-13.01-0.05-23.66-10.76-23.62-23.78c0.04-13,10.78-23.68,23.78-23.63
		c13,0.04,23.69,10.81,23.64,23.78C214.94,77.32,204.2,87.99,191.2,87.94z"/>
	<path class="st0" d="M87.98,191.25c-0.02,13.01-10.74,23.7-23.74,23.68c-13-0.02-23.7-10.75-23.68-23.74
		c0.02-13,10.73-23.68,23.74-23.67C77.32,167.53,88.01,178.24,87.98,191.25z"/>
	<path class="st0" d="M104.07,127.67c0.03-12.99,10.77-23.68,23.76-23.65c13.01,0.03,23.69,10.76,23.66,23.76
		c-0.03,13-10.77,23.69-23.76,23.66C114.74,151.4,104.04,140.66,104.07,127.67z"/>
</g>
</svg>
